<svg width="48" height="48" viewBox="0 0 48 48" fill="none" xmlns="http://www.w3.org/2000/svg">
<g filter="url(#filter0_b_376_9)">
<path d="M12.4717 31.0385L16.564 40.3019L18.1034 41.7195L19.0565 42.4867L20.5048 43.5852L21.6013 44.0755L24.0876 44.2917L26.6118 44.3685L28.3588 43.4374L29.6229 40.6991L25.6653 31.4398L21.5046 22.2095L17.4113 12.9812L4.1841 12.5788L8.37839 21.8102L12.4717 31.0385Z" fill="#E8643A"/>
<path d="M12.4717 31.0385L16.564 40.3019L18.1034 41.7195L19.0565 42.4867L20.5048 43.5852L21.6013 44.0755L24.0876 44.2917L26.6118 44.3685L28.3588 43.4374L29.6229 40.6991L25.6653 31.4398L21.5046 22.2095L17.4113 12.9812L4.1841 12.5788L8.37839 21.8102L12.4717 31.0385Z" fill="url(#paint0_linear_376_9)"/>
<path d="M34.975 15.9056L30.5976 6.77096L29.0149 5.40077L28.0384 4.66298L26.5568 3.60898L25.4456 3.15225L22.9538 3.01172H20.4283L18.711 3.99545L17.5325 6.77096L21.7753 15.9056L26.2201 25.005L30.5976 34.1045H43.831L39.3525 25.005L34.975 15.9056Z" fill="#E8643A"/>
<path d="M34.975 15.9056L30.5976 6.77096L29.0149 5.40077L28.0384 4.66298L26.5568 3.60898L25.4456 3.15225L22.9538 3.01172H20.4283L18.711 3.99545L17.5325 6.77096L21.7753 15.9056L26.2201 25.005L30.5976 34.1045H43.831L39.3525 25.005L34.975 15.9056Z" fill="url(#paint1_linear_376_9)"/>
<path d="M43.3745 22.8257L48 13.7343L34.8808 13.3353L30.2564 22.3916L25.5659 31.4107L20.8091 40.3928C19.7279 41.9995 18.7708 41.8569 16.5706 40.2639C20.4527 49.1589 28.9957 50.0142 34.0281 40.83C39.0605 31.6457 38.685 31.8098 38.685 31.8098L43.3745 22.8257Z" fill="#E8643A"/>
<path d="M4.34147 25.0541L0 34.2818H13.1254L17.4668 25.0892L21.8756 15.9317L26.3517 6.80926C27.3825 5.17048 28.3436 5.2839 30.5922 6.80926C26.4361 -1.96357 17.8707 -2.55875 13.1254 6.77417C8.38004 16.1071 8.75024 15.9317 8.75024 15.9317L4.34147 25.0541Z" fill="#E8643A"/>
</g>
<defs>
<filter id="filter0_b_376_9" x="-4" y="-4" width="56" height="55.3372" filterUnits="userSpaceOnUse" color-interpolation-filters="sRGB">
<feFlood flood-opacity="0" result="BackgroundImageFix"/>
<feGaussianBlur in="BackgroundImage" stdDeviation="2"/>
<feComposite in2="SourceAlpha" operator="in" result="effect1_backgroundBlur_376_9"/>
<feBlend mode="normal" in="SourceGraphic" in2="effect1_backgroundBlur_376_9" result="shape"/>
</filter>
<linearGradient id="paint0_linear_376_9" x1="8.28927" y1="11.6492" x2="29.2523" y2="48.2269" gradientUnits="userSpaceOnUse">
<stop offset="0.0497586" stop-color="#413D4F"/>
<stop offset="0.226956" stop-color="#413D4F"/>
<stop offset="0.459517" stop-color="#5A5666" stop-opacity="0.79"/>
<stop offset="0.947917" stop-color="white" stop-opacity="0"/>
</linearGradient>
<linearGradient id="paint1_linear_376_9" x1="39.7566" y1="35.1585" x2="17.6799" y2="-0.770911" gradientUnits="userSpaceOnUse">
<stop offset="0.0497586" stop-color="#413D4F"/>
<stop offset="0.226956" stop-color="#413D4F"/>
<stop offset="0.459517" stop-color="#5A5666" stop-opacity="0.79"/>
<stop offset="0.947917" stop-color="white" stop-opacity="0"/>
</linearGradient>
</defs>
</svg>
